<svg width="59" height="69" xmlns="http://www.w3.org/2000/svg">
 <g>
  <title>Layer 1</title>
  <g>
   <path fill="#1B539C" d="m51.90001,17.5l4.1,-2.3l-26.2,-15.2l-26.2,15.1l4,2.3l3.6,2l18.6,-10.9l18.6,11l3.5,-2z" class="st0"/>
   <polygon fill="#1B539C" points="32.899993896484375,33.800010681152344 32.899993896484375,37.099998474121094 32.899993896484375,56.099998474121094 40.5,51.800010681152344 40.5,36.70000457763672 51.9000244140625,30.20000457763672 51.9000244140625,45.20000457763672 59.5,40.800010681152344 59.5,25.899986267089844 59.5,18.70000648498535 59.4000244140625,18.70000648498535 " class="st0"/>
   <polygon fill="#1B539C" points="32.899993896484375,61.20000457763672 32.899993896484375,61.20000457763672 32.899993896484375,68.70000457763672 32.899993896484375,68.70000457763672 40.5,64.39998626708984 59.5,53.49999237060547 59.5,45.899986267089844 40.5,56.899986267089844 " class="st0"/>
   <polygon fill="#E62528" points="26.70001220703125,68.49999237060547 26.70001220703125,68.30001068115234 26.70001220703125,61.300010681152344 26.70001220703125,61.399986267089844 7.600006103515625,50.49999237060547 7.600006103515625,43.70000457763672 26.70001220703125,54.599998474121094 26.70001220703125,47.70000457763672 7.600006103515625,36.800010681152344 7.600006103515625,29.800010681152344 26.70001220703125,40.70000457763672 26.70001220703125,33.800010681152344 7.600006103515625,22.99999237060547 0.1000060960650444,18.70000648498535 0,18.70000648498535 0,25.899986267089844 0,31.70000457763672 0,39.70000457763672 0,43.599998474121094 0,43.800010681152344 0,52.99999237060547 0,53.099998474121094 " class="st1"/>
  </g>
 </g>
</svg>